<?xml version="1.0" encoding="UTF-8" standalone="no"?>
<!-- Generator: Adobe Illustrator 13.0.0, SVG Export Plug-In . SVG Version: 6.00 Build 14948)  -->

<svg
   xmlns:dc="http://purl.org/dc/elements/1.1/"
   xmlns:cc="http://creativecommons.org/ns#"
   xmlns:rdf="http://www.w3.org/1999/02/22-rdf-syntax-ns#"
   xmlns:svg="http://www.w3.org/2000/svg"
   xmlns="http://www.w3.org/2000/svg"
   xmlns:sodipodi="http://sodipodi.sourceforge.net/DTD/sodipodi-0.dtd"
   xmlns:inkscape="http://www.inkscape.org/namespaces/inkscape"
   version="1.1"
   id="Layer_1"
   x="0px"
   y="0px"
   width="280.39398"
   height="201.28598"
   viewBox="0 0 280.394 201.28598"
   enable-background="new 0 0 1317.195 1158.875"
   xml:space="preserve"
   inkscape:version="0.48.2 r9819"
   sodipodi:docname="route real svg 4.svg"><metadata
   id="metadata5137"><rdf:RDF><cc:Work
       rdf:about=""><dc:format>image/svg+xml</dc:format><dc:type
         rdf:resource="http://purl.org/dc/dcmitype/StillImage" /><dc:title></dc:title></cc:Work></rdf:RDF></metadata><defs
   id="defs5135" /><sodipodi:namedview
   pagecolor="#ffffff"
   bordercolor="#666666"
   borderopacity="1"
   objecttolerance="10"
   gridtolerance="10"
   guidetolerance="10"
   inkscape:pageopacity="0"
   inkscape:pageshadow="2"
   inkscape:window-width="1920"
   inkscape:window-height="1120"
   id="namedview5133"
   showgrid="false"
   fit-margin-top="20"
   fit-margin-left="20"
   fit-margin-right="20"
   fit-margin-bottom="20"
   inkscape:zoom="0.81458311"
   inkscape:cx="25.857398"
   inkscape:cy="-41.982053"
   inkscape:window-x="1920"
   inkscape:window-y="25"
   inkscape:window-maximized="1"
   inkscape:current-layer="Layer_1" />



<linearGradient
   id="SVGID_1_"
   gradientUnits="userSpaceOnUse"
   x1="2.2217"
   y1="917.65228"
   x2="2.2217"
   y2="917.65228">
	<stop
   offset="0"
   style="stop-color:#F6F6F6"
   id="stop4590" />
	<stop
   offset="0.7865"
   style="stop-color:#FFFFFF"
   id="stop4592" />
	<stop
   offset="0.9104"
   style="stop-color:#FAFAFA"
   id="stop4594" />
	<stop
   offset="1"
   style="stop-color:#F2F2F2"
   id="stop4596" />
</linearGradient>
<line
   x1="-519.09399"
   y1="666.099"
   x2="-519.09399"
   y2="683.41595"
   id="line4598"
   style="fill:url(#SVGID_1_)" />

<linearGradient
   id="SVGID_3_"
   gradientUnits="userSpaceOnUse"
   x1="658.86432"
   y1="408.0322"
   x2="658.86432"
   y2="804.97998"
   gradientTransform="matrix(1,0,0,1.4005,0,-485.5223)">
	<stop
   offset="0"
   style="stop-color:#DBDADA"
   id="stop4622" />
	<stop
   offset="0.0635"
   style="stop-color:#E7E7E7"
   id="stop4624" />
	<stop
   offset="0.1701"
   style="stop-color:#F5F4F4"
   id="stop4626" />
	<stop
   offset="0.3021"
   style="stop-color:#FDFDFD"
   id="stop4628" />
	<stop
   offset="0.5337"
   style="stop-color:#FFFFFF"
   id="stop4630" />
	<stop
   offset="0.7549"
   style="stop-color:#FCFCFC"
   id="stop4632" />
	<stop
   offset="0.9132"
   style="stop-color:#F3F3F3"
   id="stop4634" />
	<stop
   offset="1"
   style="stop-color:#EBEAEA"
   id="stop4636" />
</linearGradient>


<radialGradient
   id="SVGID_4_"
   cx="659.30957"
   cy="555.13379"
   r="464.77441"
   gradientTransform="matrix(0.9997,0,0,0.6316,0.3098,279.7446)"
   gradientUnits="userSpaceOnUse">
	<stop
   offset="0"
   style="stop-color:#FFFFFF"
   id="stop4643" />
	<stop
   offset="0.2513"
   style="stop-color:#E4E4E4"
   id="stop4645" />
	<stop
   offset="0.7523"
   style="stop-color:#B3B2B2"
   id="stop4647" />
	<stop
   offset="1"
   style="stop-color:#A09F9F"
   id="stop4649" />
</radialGradient>

<radialGradient
   id="SVGID_5_"
   cx="659.31049"
   cy="-3121.7559"
   r="464.77441"
   gradientTransform="matrix(0.9997,0,0,0.2119,0.3098,1283.0599)"
   gradientUnits="userSpaceOnUse">
	<stop
   offset="0"
   style="stop-color:#A09F9F"
   id="stop4654" />
	<stop
   offset="1"
   style="stop-color:#FFFFFF"
   id="stop4656" />
</radialGradient>






<g
   id="g4706"
   transform="translate(-521.316,-242.89503)">
	<path
   d="m 692.335,329.568 c -1.409,1.745 -1.075,2.161 -1.409,3.574 -0.332,1.416 0.414,0.999 0.414,0.999 0,-0.25 0.582,-2.494 0.914,-3.576 0.33,-1.08 0.081,-0.997 0.081,-0.997 z"
   id="path4708"
   inkscape:connector-curvature="0"
   style="fill:none" />
	<path
   d="m 701.881,330.481 -0.58,0.167 c 0,0 -0.022,0.578 -0.057,1.4 l 0.383,0.426 0.254,-1.993 z"
   id="path4710"
   inkscape:connector-curvature="0"
   style="fill:none" />
	<path
   d="m 696.818,336.055 c 0,0 -0.33,-0.5 -1.16,1.164 -0.832,1.662 -0.998,2.744 0.662,4.159 1.66,1.413 1.909,3.741 1.909,2.328 0,-1.414 -0.166,-4.741 -0.166,-4.741 -0.581,-0.915 -1.245,-2.91 -1.245,-2.91 z"
   id="path4712"
   inkscape:connector-curvature="0"
   style="fill:none" />
	<path
   d="m 716.902,350.666 0.175,-0.523 -15.044,-17.214 0.763,-2.448 c 0,0 0.396,-0.354 0.977,-0.936 l 2.458,-0.154 c 0,0 2.15,-5.834 2.15,-9.213 0,-3.379 -1.076,-7.065 -1.229,-7.987 -0.153,-0.919 -1.229,-0.767 -1.229,-0.767 -1.843,-3.378 -4.289,-1.735 -4.289,-1.735 0,0 -0.58,-0.333 -0.831,0 -0.248,0.333 -0.996,0.834 -1.162,1.165 -0.166,0.333 -0.415,0.75 -0.745,0.667 -0.331,-0.085 -0.747,-0.667 -1.663,-0.335 -0.912,0.335 -1.16,0.168 -1.16,0.168 l 0.082,-1.499 c 0,0 0.996,-1.164 0.664,-2.244 -0.33,-1.081 0,-1.163 -0.581,-1.997 -0.036,-0.051 -0.063,-0.097 -0.099,-0.146 -0.326,-0.96 -0.991,-1.432 -1.732,-1.64 -0.557,-0.197 -0.819,-0.209 -1.238,-0.209 -0.264,0 -0.623,0.053 -0.943,0.136 -0.086,0.013 -0.171,0.028 -0.252,0.041 -0.545,0.091 -1.004,0.496 -1.365,0.951 -0.062,0.042 -0.111,0.074 -0.181,0.12 -0.17,0.114 -0.278,0.389 -0.352,0.694 -0.212,0.392 -0.326,0.692 -0.326,0.692 0,0 -2.075,0.768 -1.076,1.075 0.211,0.065 0.683,0.068 1.283,0.04 0.024,0.519 0.059,1.277 0.059,1.491 0,0.332 0.082,0.915 0.246,1.415 0.166,0.499 -0.164,1.248 0.665,1.413 0.83,0.167 1.409,1.164 1.825,2.412 0,0 -0.663,0.667 -1.161,1.165 -0.499,0.498 -0.664,0.832 -0.746,1.413 -0.084,0.583 0,1.498 0,1.914 0,0.416 0.662,2.661 0.496,2.908 -0.166,0.25 0.582,1.5 0.416,2.248 -0.166,0.748 -1.162,3.161 -1.41,4.408 -0.249,1.247 -0.498,3.575 -0.996,3.659 -0.497,0.082 -0.581,0.664 -0.497,1.828 0.079,1.166 2.487,3.245 2.487,3.245 0,0 -0.58,2.494 0,3.492 0.582,1 4.897,7.071 5.479,7.82 0.581,0.747 0.168,0.914 -0.082,1.577 -0.248,0.667 -0.416,1.414 -1.413,1.914 -0.994,0.501 -1.409,0.082 -2.405,0.832 -0.996,0.749 -0.833,1.664 -0.833,1.664 0,0 2.409,0.997 4.484,0.997 2.075,0 4.814,-0.499 5.395,-1.08 0.582,-0.583 -0.497,-2.995 -0.828,-4.491 -0.333,-1.497 0.331,-4.575 0.663,-6.32 0.331,-1.746 -0.996,-4.491 -0.83,-6.239 0.074,-0.779 0.148,-2.138 0.207,-3.402 l 15.724,17.015 z m -15.601,-20.018 0.58,-0.167 -0.254,1.993 -0.383,-0.426 c 0.034,-0.821 0.057,-1.4 0.057,-1.4 z m -9.047,-0.083 c -0.332,1.082 -0.914,3.326 -0.914,3.576 0,0 -0.746,0.417 -0.414,-0.999 0.334,-1.413 0,-1.829 1.409,-3.574 0,0 0.249,-0.083 -0.081,0.997 z m 4.066,10.812 c -1.66,-1.415 -1.494,-2.497 -0.662,-4.159 0.83,-1.663 1.16,-1.164 1.16,-1.164 0,0 0.664,1.995 1.245,2.91 0,0 0.166,3.327 0.166,4.741 0,1.414 -0.249,-0.915 -1.909,-2.328 z"
   id="path4714"
   inkscape:connector-curvature="0"
   style="fill:#353535" />
</g>
<g
   id="g4716"
   transform="translate(-521.316,-242.89503)">
	<path
   d="m 731.139,360.809 c -1.536,-0.92 -10.617,-4.517 -10.617,-4.517 l 0,0 c -3.212,-2.899 -3.996,-3.546 -8.756,-2.109 -5.167,1.563 -16.209,-1.783 -23.856,-0.873 -7.646,0.913 -23.839,8.684 -23.839,8.684 0,0 26.059,4.134 49.606,1.677 0.448,-0.047 0.87,-0.091 1.304,-0.135 0.033,-0.006 0.06,-0.01 0.094,-0.016 11.209,-1.382 17.599,-1.789 16.064,-2.711 z"
   id="path4718"
   inkscape:connector-curvature="0"
   style="fill:#4c9b00" />
</g>
<g
   id="g4720"
   transform="translate(-521.316,-242.89503)">
	<path
   d="m 650.018,336.917 4.722,-0.869 c -0.073,-2.238 -1.228,-3.848 -3.307,-5.054 l -3.97,2.658 c 1.579,0.945 2.4,1.964 2.555,3.265 z"
   id="path4722"
   inkscape:connector-curvature="0"
   style="fill:#4c9b00" />
	<path
   d="m 653.049,342.173 c 0.434,-0.88 0.778,-1.705 1.046,-2.477 l -4.896,0.903 c -0.394,0.88 -0.912,1.859 -1.561,2.957 -0.729,1.232 -0.975,2.445 -0.862,3.618 l 5.704,-2.334 c -0.061,-0.833 0.1,-1.721 0.569,-2.667 z"
   id="path4724"
   inkscape:connector-curvature="0"
   style="fill:#4c9b00" />
	<path
   d="m 653.885,347.945 -5.897,2.416 c 0.942,1.433 2.354,2.753 4.002,3.901 l 6.92,-2.835 c -2.022,-0.962 -3.837,-2.117 -5.025,-3.482 z"
   id="path4726"
   inkscape:connector-curvature="0"
   style="fill:#4c9b00" />
	<path
   d="m 663.493,353.232 -7.764,3.179 c 3.232,1.53 6.626,2.408 8.871,2.31 l 6.597,-3.532 c 0,0 -3.637,-0.624 -7.704,-1.957 z"
   id="path4728"
   inkscape:connector-curvature="0"
   style="fill:#4c9b00" />
	<path
   d="m 621.544,312.321 -1.528,2.957 c 0,0 -0.082,0.354 1.87,2.824 l 2.617,-1.938 c -1.898,-2.174 -2.959,-3.843 -2.959,-3.843 z"
   id="path4730"
   inkscape:connector-curvature="0"
   style="fill:#4c9b00" />
	<path
   d="m 633.152,324.21 -2.792,2.067 c 1.433,1.013 2.986,1.939 4.654,2.712 l 2.768,-2.053 c -1.599,-0.729 -3.154,-1.67 -4.63,-2.726 z"
   id="path4732"
   inkscape:connector-curvature="0"
   style="fill:#4c9b00" />
	<path
   d="m 642.226,328.328 c -0.218,-0.033 -0.433,-0.081 -0.646,-0.125 l -2.903,2.149 c 2.043,0.606 3.784,1.159 5.245,1.699 l 3.813,-2.552 c -1.597,-0.467 -3.441,-0.847 -5.509,-1.171 z"
   id="path4734"
   inkscape:connector-curvature="0"
   style="fill:#4c9b00" />
	<path
   d="m 626.732,318.589 -2.725,2.017 c 1.071,1.177 2.297,2.399 3.67,3.58 l 2.798,-2.072 c -1.365,-1.161 -2.624,-2.367 -3.743,-3.525 z"
   id="path4736"
   inkscape:connector-curvature="0"
   style="fill:#4c9b00" />
</g>
<path
   d="M 144.343,60.717977"
   id="path4738"
   inkscape:connector-curvature="0"
   style="fill:#4c9b00" />
<path
   d="m 174.412,31.983977 -23.492,12.684 -19.123,-24.668 -16.745,21.764 -6.868,-3.997 -22.497,31.403 -10.306,-7.551 -50.378,62.689993 17.334,-1.76 c 6.047,-8.54199 35.534,-49.662993 35.534,-49.662993 l 12.365,8.089 19.922,-33.171 5.484,6.604 -3.995,14.138 15.563,-25.533 6.303,-9.143 12.937,17.984 -10.415,11.54 22.601,-14.733 13.809,-8.584 35.175,43.227 12.076,-2.533 -45.284,-48.787 z"
   id="path4740"
   inkscape:connector-curvature="0"
   style="fill:#4c9b00" />
<radialGradient
   id="SVGID_6_"
   cx="1205.8232"
   cy="456.4902"
   r="51.175999"
   gradientTransform="matrix(0.9093,0,0,0.9075,104.4158,79.5495)"
   gradientUnits="userSpaceOnUse">
	<stop
   offset="0"
   style="stop-color:#FFFFFF"
   id="stop4743" />
	<stop
   offset="1"
   style="stop-color:#D1D1D1"
   id="stop4745" />
</radialGradient>



<path
   d="M 675.509,252.31297"
   id="path4764"
   inkscape:connector-curvature="0"
   style="fill:#4c9b00" />

<linearGradient
   id="SVGID_8_"
   gradientUnits="userSpaceOnUse"
   x1="1205.8232"
   y1="528.46338"
   x2="1205.8232"
   y2="630.81299"
   gradientTransform="matrix(0.9093,0,0,-0.6817,104.4158,976.2576)">
	<stop
   offset="0"
   style="stop-color:#FFFFFF"
   id="stop4805" />
	<stop
   offset="0.3223"
   style="stop-color:#FCFCFC"
   id="stop4807" />
	<stop
   offset="0.5928"
   style="stop-color:#F1F1F1"
   id="stop4809" />
	<stop
   offset="0.8437"
   style="stop-color:#E0E0E0"
   id="stop4811" />
	<stop
   offset="1"
   style="stop-color:#D1D1D1"
   id="stop4813" />
</linearGradient>


<path
   d="M 674.734,330.49597"
   id="path4842"
   inkscape:connector-curvature="0"
   style="opacity:0.3;fill:#4c9b00" />

<path
   d="M 686.544,338.70797"
   id="path4897"
   inkscape:connector-curvature="0"
   style="opacity:0.3;fill:#4c9b00" />
<linearGradient
   id="SVGID_13_"
   gradientUnits="userSpaceOnUse"
   x1="1200.8232"
   y1="605.19189"
   x2="1200.8232"
   y2="561.43799">
	<stop
   offset="0"
   style="stop-color:#FFFFFF"
   id="stop4900" />
	<stop
   offset="0.1541"
   style="stop-color:#FDFEFC"
   id="stop4902" />
	<stop
   offset="0.2835"
   style="stop-color:#F5FAF1"
   id="stop4904" />
	<stop
   offset="0.404"
   style="stop-color:#E9F3E0"
   id="stop4906" />
	<stop
   offset="0.5191"
   style="stop-color:#D8E9C7"
   id="stop4908" />
	<stop
   offset="0.6305"
   style="stop-color:#C2DDA8"
   id="stop4910" />
	<stop
   offset="0.7389"
   style="stop-color:#A6CD81"
   id="stop4912" />
	<stop
   offset="0.8451"
   style="stop-color:#86BB52"
   id="stop4914" />
	<stop
   offset="0.9468"
   style="stop-color:#61A71E"
   id="stop4916" />
	<stop
   offset="1"
   style="stop-color:#4C9B00"
   id="stop4918" />
</linearGradient>


<g
   id="g4947"
   transform="translate(-521.316,-242.89503)">
	<path
   d="m 563.439,390.19 h -3.898 c -3.476,0 -6.527,1.865 -7.714,4.237 v 28.905 H 541.316 V 380.95 h 9.832 l 0.256,4.493 c 2.202,-2.289 6.441,-5.171 11.273,-5.171 h 2.797 l -2.035,9.918 z"
   id="path4949"
   inkscape:connector-curvature="0"
   style="fill:#3f3f3f" />
	<path
   d="m 563.61,402.227 c 0,-11.867 7.884,-21.954 21.446,-21.954 13.562,0 21.445,10.087 21.445,21.954 0,11.868 -7.883,21.954 -21.445,21.954 -13.562,0 -21.446,-10.086 -21.446,-21.954 z m 10.766,0 c 0,7.883 3.898,13.309 10.681,13.309 6.78,0 10.681,-5.426 10.681,-13.309 0,-7.883 -3.9,-13.308 -10.681,-13.308 -6.783,0 -10.681,5.425 -10.681,13.308 z"
   id="path4951"
   inkscape:connector-curvature="0"
   style="fill:#3f3f3f" />
	<path
   d="m 637.526,423.333 -0.17,-2.543 c -2.458,1.865 -6.104,3.391 -9.409,3.391 -13.224,0 -17.97,-8.477 -17.97,-20.428 V 380.95 h 10.511 v 22.803 c 0,7.883 2.457,11.612 8.392,11.612 3.476,0 6.019,-1.271 7.968,-3.56 V 380.95 h 10.511 v 42.383 h -9.833 z"
   id="path4953"
   inkscape:connector-curvature="0"
   style="fill:#3f3f3f" />
	<path
   d="m 675.161,424.181 h -7.544 c -7.969,0 -11.359,-5.595 -11.359,-11.104 v -23.479 h -6.019 l 0.933,-8.646 h 5.086 v -9.324 l 10.512,-1.102 v 10.426 h 9.324 v 8.646 h -9.324 v 19.156 c 0,6.442 0.508,6.782 6.441,6.782 h 2.883 l -0.933,8.645 z"
   id="path4955"
   inkscape:connector-curvature="0"
   style="fill:#3f3f3f" />
	<path
   d="m 687.96,404.431 c 1.187,7.883 7.035,11.104 12.631,11.104 3.983,0 9.577,-1.61 13.053,-3.476 l 0.51,8.9 c -3.222,1.695 -8.138,3.221 -14.157,3.221 -15.342,0 -22.971,-10.086 -22.971,-21.954 0,-11.782 7.29,-21.954 20.344,-21.954 10.68,0 18.648,7.205 18.648,18.395 0,1.863 -0.255,3.729 -0.678,5.764 h -27.38 z m 0.255,-7.12 h 17.122 c 0,-3.814 -1.949,-8.392 -7.628,-8.392 -5.426,0 -8.478,3.559 -9.494,8.392 z"
   id="path4957"
   inkscape:connector-curvature="0"
   style="fill:#3f3f3f" />
	<path
   d="m 719.493,423.333 v -11.02 h 10.511 v 11.02 h -10.511 z"
   id="path4959"
   inkscape:connector-curvature="0"
   style="fill:#3f3f3f" />
	<path
   d="m 736.106,374.508 v -10.511 h 10.511 v 10.511 h -10.511 z m 0,48.825 V 380.95 h 10.511 v 42.383 h -10.511 z"
   id="path4961"
   inkscape:connector-curvature="0"
   style="fill:#3f3f3f" />
	<path
   d="m 750.771,421.045 0.932,-8.985 c 2.628,2.035 8.308,4.237 13.055,4.237 5.086,0 6.441,-2.542 6.441,-4.661 0,-3.561 -3.645,-4.747 -7.798,-6.019 -5.934,-1.78 -12.206,-3.729 -12.206,-11.867 0,-5.934 3.56,-13.478 15.513,-13.478 5.51,0 11.02,1.61 13.308,3.136 l -0.933,8.986 c -2.119,-2.12 -7.035,-4.578 -11.613,-4.578 -3.645,0 -7.035,1.272 -7.035,4.661 0,4.069 4.323,4.747 9.663,6.273 5.68,1.61 11.612,4.238 11.612,12.969 0,5.172 -2.117,12.461 -16.613,12.461 -6.613,10e-4 -11.868,-1.525 -14.326,-3.135 z"
   id="path4963"
   inkscape:connector-curvature="0"
   style="fill:#3f3f3f" />
</g>



</svg>